<?xml version="1.0" encoding="utf-8"?>
<!-- Generator: Adobe Illustrator 19.1.0, SVG Export Plug-In . SVG Version: 6.00 Build 0)  -->
<!DOCTYPE svg PUBLIC "-//W3C//DTD SVG 1.1//EN" "http://www.w3.org/Graphics/SVG/1.1/DTD/svg11.dtd">
<svg version="1.1" id="Layer_1" xmlns="http://www.w3.org/2000/svg" xmlns:xlink="http://www.w3.org/1999/xlink" x="0px" y="0px"
	 viewBox="-129 131 100 100" style="enable-background:new -129 131 100 100;" xml:space="preserve">
<style type="text/css">
	.st0{fill:#F5A623;}
</style>
<g>
	<path class="st0" d="M-79,162.8c-1.2,0-2.2,1-2.2,2.2v27.8c0,1.2,1,2.2,2.2,2.2s2.2-1,2.2-2.2V165C-76.8,163.8-77.8,162.8-79,162.8
		z"/>
	<path class="st0" d="M-79,200.6c-1.2,0-2.2,1-2.2,2.2v4.4c0,1.2,1,2.2,2.2,2.2s2.2-1,2.2-2.2v-4.4C-76.8,201.6-77.8,200.6-79,200.6
		z"/>
	<path class="st0" d="M-73,140.5c-1.3-2.2-3.5-3.5-6-3.5s-4.8,1.3-6,3.5l-42.9,74.3c-1.3,2.2-1.3,4.7,0,6.8c1.3,2.2,3.5,3.4,6,3.4
		h85.8c2.5,0,4.8-1.2,6-3.4c1.3-2.2,1.3-4.7,0-6.9L-73,140.5z M-33.9,219.4c-0.2,0.4-0.9,1.1-2.2,1.1h-85.8c-1.3,0-1.9-0.8-2.2-1.1
		s-0.7-1.3,0-2.4l42.9-74.3c0.7-1.1,1.7-1.2,2.2-1.2s1.5,0.1,2.2,1.3l42.9,74.3C-33.3,218.1-33.7,219-33.9,219.4z"/>
</g>
</svg>
